<svg xmlns="http://www.w3.org/2000/svg" viewBox="0 0 80 80"><title>drover_xsmall_icons</title><g id="Layer_4" data-name="Layer 4"><path d="M65.44,51.08H63.72c5,.41,5.43-2.2,5.86-4.8.38-2.3,1.16-5.17-1.34-7.77-.71-.74.1-3.95-3.15-6.51a21.89,21.89,0,0,0-6.42-3.11C39.34,22.71,28.34,32.41,24,34.66S12.88,38.83,11.36,41.9C10.84,43,10,43.26,10,46.22v3.63a1.25,1.25,0,0,0,1.25,1.23h7.39" style="fill:none;stroke:#162b24;stroke-linejoin:round;stroke-width:5px"/><line x1="26.27" y1="51.08" x2="56.1" y2="51.08" style="fill:none;stroke:#162b24;stroke-linejoin:round;stroke-width:5px"/><circle cx="22.45" cy="48.58" r="4.55" style="fill:none;stroke:#162b24;stroke-linejoin:round;stroke-width:5px"/><circle cx="59.91" cy="48.58" r="4.55" style="fill:none;stroke:#162b24;stroke-linejoin:round;stroke-width:5px"/></g></svg>